<svg xmlns="http://www.w3.org/2000/svg" viewBox="0 0 174.86 193.76"><defs><style>.cls-1{fill:#fff;}</style></defs><g id="Calque_2" data-name="Calque 2"><g id="Calque_1-2" data-name="Calque 1"><path class="cls-1" d="M170.07.13C115.24.11,60.42.18,5.59,0,.48,0,0,2.18,0,6.27q.12,90.5,0,181c0,4.87,1.08,6.52,6.33,6.5,54.33-.21,108.66-.13,163-.14,1.78,0,3.56-.18,5.55-.28V.45C173,.32,171.54.13,170.07.13ZM105.15,141.58c-3.49,16.3-12.36,29.4-28.49,35.34C59,183.43,44.46,175.83,31.77,164c-11.32-10.54-15.88-23.56-10.6-38.48,5.52-15.61,15.11-28,32.47-31.34,4.56-.89,9.59.64,15,1.1C66.56,104.09,64.79,111.43,63,119a35.12,35.12,0,0,1-3.86-1c-5.28-2-9.85-1-13.47,3.35-3.91,4.74-5.47,10-2.19,15.69,5.28,9.1,13.48,14.67,23.45,17.28,6.36,1.66,11.34-1,14.81-6.61,3.19-5.16,2.61-10.11-1-14.83-.49-.63-.93-1.3-1.71-2.39l17.91-14.82C104.19,123.22,107.19,132.07,105.15,141.58Zm30.33-37.81a4.25,4.25,0,0,1-3.64,1.32Q92.5,93.85,53.25,82.32a9.26,9.26,0,0,1-1.93-1.21c4.58-6.53,8.91-13,13.72-19.17.82-1,3.91-1.14,5.56-.57,15.86,5.52,31.64,11.28,47.44,17,2,.72,4,1.41,6.06,2.12l.68-.69L86,32,101,10.8l50.52,70.37C146.1,88.88,140.89,96.4,135.48,103.77Z"/></g></g></svg>