<svg width="23" height="22" viewBox="0 0 23 22" fill="none" xmlns="http://www.w3.org/2000/svg">
<path d="M11.0924 0.466098C11.3913 0.167641 11.7963 1.31722e-07 12.2187 1.26685e-07C12.641 1.21649e-07 13.0461 0.167641 13.3449 0.466098L22.3762 9.49735C22.6746 9.79618 22.8423 10.2013 22.8423 10.6236C22.8423 11.0459 22.6746 11.451 22.3762 11.7498L13.3449 20.7811C13.0429 21.063 12.6432 21.2165 12.2301 21.2094C11.817 21.2022 11.4228 21.035 11.1307 20.7428C10.8386 20.4507 10.6713 20.0565 10.6642 19.6435C10.657 19.2304 10.8106 18.8307 11.0924 18.5286L17.4037 12.2173L1.59369 12.2173C1.171 12.2173 0.765623 12.0494 0.466738 11.7505C0.167851 11.4517 -6.28108e-05 11.0463 -6.28158e-05 10.6236C-6.28209e-05 10.2009 0.167851 9.79553 0.466738 9.49665C0.765623 9.19776 1.171 9.02985 1.59369 9.02985L17.4037 9.02985L11.0924 2.7186C10.794 2.41977 10.6263 2.01469 10.6263 1.59235C10.6263 1.17 10.794 0.764927 11.0924 0.466098Z" fill="white"/>
</svg>
