<svg xmlns="http://www.w3.org/2000/svg" viewBox="0 0 175.52 193.09"><defs><style>.cls-1{fill:#b8524d;}</style></defs><g id="Calque_2" data-name="Calque 2"><g id="Calque_1-2" data-name="Calque 1"><path class="cls-1" d="M175.52.36c-2.32-.11-4.45-.3-6.57-.3Q88.22,0,7.48,0c-1,0-2,.08-3,0-3-.28-4.2,1-4.1,4.05.15,5,0,10,0,15V40.56H7q41.49,0,83,0c11.75,0,17.18,5.4,17.19,17v78c0,12.6-4.89,17.49-17.5,17.49-27.82,0-55.65.11-83.48-.1-4.7,0-6,1.45-5.84,6,.32,8.49.09,17,.09,25.5v8.68H175.52Z"/><path class="cls-1" d="M1.23,68C-1.16,78.57-.56,80.16,7.54,85.23c8.46,5.29,17,10.44,25.33,15.93,2.92,1.93,5,2,8,.06,14.85-9.5,29.85-18.77,44.81-28.11,7.67-4.78,8.63-7.33,6.11-16.94-1.49.87-2.91,1.66-4.29,2.52C73.94,67.14,60.05,75.11,47,84.26c-7.34,5.14-12.83,5.52-20.07,0C18.94,78.19,9.94,73.45,1.23,68Z"/></g></g></svg>