<svg width="159" height="67" viewBox="0 0 159 67" fill="none" xmlns="http://www.w3.org/2000/svg">
<path d="M26.253 49.5944C23.425 49.6602 20.623 49.041 18.0854 47.7896C15.8134 46.6521 13.9353 44.8573 12.6948 42.638C11.405 40.2082 10.7639 37.486 10.8338 34.7353C10.8015 32.4507 11.1973 30.1803 12.0006 28.0418C12.7347 26.121 13.8774 24.3831 15.3493 22.9486C16.8498 21.5071 18.6397 20.4021 20.5999 19.7069C22.8121 18.9361 25.1419 18.5586 27.484 18.5913C28.7009 18.5928 29.9146 18.7161 31.1069 18.9593C32.3437 19.2077 33.5561 19.5654 34.7298 20.0282C35.9255 20.5036 37.074 21.0903 38.1602 21.7804L34.8057 28.2988H33.6389L27.1748 20.4429H32.8746V24.6482C32.4754 23.7486 31.8192 22.9874 30.9886 22.4605C30.1581 21.9335 29.1904 21.6644 28.2074 21.6869C26.6739 21.684 25.19 22.2311 24.0244 23.2289C22.7119 24.3542 21.6945 25.7839 21.0608 27.3934C20.3052 29.2667 19.9323 31.2726 19.964 33.2926C19.9147 35.3416 20.3254 37.3755 21.1658 39.2444C21.8975 40.8406 23.0851 42.1841 24.5787 43.1052C26.1538 44.0375 27.9592 44.5071 29.7884 44.4603C31.0839 44.4691 32.3652 44.1898 33.5397 43.6426C34.681 43.1026 35.68 42.3024 36.4567 41.3062L38.1252 42.2057C37.2257 44.4559 35.6152 46.3493 33.5397 47.5968C31.3473 48.9365 28.8214 49.629 26.253 49.5944Z" fill="#B8524D"/>
<path d="M40.3364 48.9051V47.8947L43.3001 44.9334V23.2756L40.3364 20.3085V19.2747H54.6647V20.3026L51.7011 23.2698V48.9051H40.3364ZM49.2158 48.9051V46.8433L63.2174 45.6751V48.8934L49.2158 48.9051ZM56.5083 48.9051V46.89L63.2816 39.4605H64.4484V48.9051H56.5083Z" fill="#B8524D"/>
<path d="M67.1843 48.9051V47.8947L70.148 44.9334V23.2756L67.1843 20.3085V19.2747H78.549V44.9158L81.5126 47.8947V48.9226L67.1843 48.9051ZM72.9775 36.2422V33.8767H79.7099C80.5094 33.9037 81.3056 33.7616 82.0464 33.4597C82.7873 33.1578 83.4563 32.7028 84.0096 32.1245C85.1307 30.9042 85.7242 29.2896 85.6606 27.6329C85.6987 26.8549 85.5752 26.0774 85.2981 25.3496C85.0209 24.6218 84.5961 23.9593 84.0504 23.4041C83.4653 22.8667 82.779 22.4515 82.0318 22.1827C81.2845 21.914 80.4912 21.797 79.6983 21.8388H74.1676V19.2747H83.0003C86.9752 19.2747 89.9408 19.9405 91.8972 21.2722C93.8535 22.6039 94.8258 24.6151 94.8142 27.3058C94.8563 28.5325 94.5729 29.7485 93.9929 30.83C93.4128 31.9114 92.5568 32.8196 91.5121 33.462C89.3302 34.9066 86.1973 35.6289 82.1135 35.6289H81.9385V36.213L72.9775 36.2422ZM87.8134 48.9051L80.2233 35.6289L87.475 32.1945L96.7336 48.3386L92.4922 42.6379L97.7428 47.8947V48.9226L87.8134 48.9051Z" fill="#B8524D"/>
<path d="M130.017 23.3634C128.638 22.3518 126.965 21.8241 125.256 21.8623H122.643V46.3353H125.256C126.965 46.3762 128.64 45.8482 130.017 44.8342C131.43 43.7362 132.508 42.263 133.126 40.5821C133.897 38.5096 134.267 36.3096 134.217 34.0988C134.27 31.8802 133.9 29.6719 133.126 27.5921C132.503 25.9204 131.426 24.4559 130.017 23.3634Z" fill="#B8524D"/>
<path d="M104.715 7.59302V58.5366H149.864V7.59302H104.715ZM142.087 39.8986C141.216 41.745 139.952 43.3778 138.383 44.6822C136.695 46.0777 134.759 47.1418 132.677 47.8187C130.337 48.5751 127.89 48.9422 125.431 48.9051H111.272V47.8947L114.236 44.9334V23.2756L111.272 20.3085V19.2747H126.155C129.309 19.1925 132.445 19.79 135.349 21.0269C137.778 22.0811 139.847 23.8204 141.305 26.0325C142.748 28.3377 143.481 31.0171 143.412 33.7365C143.436 35.8544 142.983 37.9506 142.087 39.8694V39.8986Z" fill="#B8524D"/>
</svg>
